<svg xmlns="http://www.w3.org/2000/svg" viewBox="0 0 180 180">
  <defs>
    <linearGradient id="aiGradient" x1="0%" y1="0%" x2="100%" y2="100%">
      <stop offset="0%" style="stop-color:#3b82f6"/>
      <stop offset="50%" style="stop-color:#8b5cf6"/>
      <stop offset="100%" style="stop-color:#d946ef"/>
    </linearGradient>
  </defs>
  <!-- Background -->
  <rect width="180" height="180" rx="40" fill="url(#aiGradient)"/>
  <!-- Neural network nodes -->
  <g fill="white">
    <circle cx="90" cy="90" r="14"/>
    <circle cx="90" cy="50" r="10"/>
    <circle cx="60" cy="65" r="8"/>
    <circle cx="120" cy="65" r="8"/>
    <circle cx="90" cy="130" r="10"/>
    <circle cx="60" cy="115" r="8"/>
    <circle cx="120" cy="115" r="8"/>
    <circle cx="50" cy="90" r="8"/>
    <circle cx="130" cy="90" r="8"/>
  </g>
  <!-- Connections -->
  <g stroke="white" stroke-width="2" fill="none" opacity="0.8">
    <line x1="90" y1="76" x2="90" y2="60"/>
    <line x1="78" y1="82" x2="66" y2="71"/>
    <line x1="102" y1="82" x2="114" y2="71"/>
    <line x1="90" y1="104" x2="90" y2="120"/>
    <line x1="78" y1="98" x2="66" y2="109"/>
    <line x1="102" y1="98" x2="114" y2="109"/>
    <line x1="76" y1="90" x2="58" y2="90"/>
    <line x1="104" y1="90" x2="122" y2="90"/>
  </g>
</svg>
